<svg width="289" height="272" viewBox="0 0 289 272" fill="none" xmlns="http://www.w3.org/2000/svg">
<mask id="path-1-inside-1_17_2" fill="white">
<path d="M195.797 23.8361L197.952 27.3207L200.447 32.7777L201.555 39.8091L212.547 63.3365L221.322 76.4723L240.536 100.401L248.819 104.81L262.828 124.02L267.662 127.196L270.433 132.87L284.967 137.526L289 140.979L288.508 142.583L286.999 144.28L284.874 145.975L282.041 147.147L275.206 143.631L268.463 139.654L264.768 141.473L263.382 146.654L260.888 149.306L257.779 150.354L256.485 152.081L256.208 169.534L256.455 185.969L261.535 186.339L270.033 192.043L273.666 195.404L274.806 198.518L273.759 200.03L267.539 203.606L261.473 208.139L258.456 213.783L263.752 222.941L264.891 229.138L264.706 235.644L263.229 238.759L251.497 246.191L248.942 248.811L249.249 250.692L255.746 255.842L258.794 260.807L261.35 266.789L261.72 272L255.839 262.348L247.71 253.129L240.628 247.454L240.074 234.226L237.241 227.042L226.588 220.412L217.474 215.756L210.7 216.712L214.856 224.328L225.541 234.103L226.249 237.834L226.095 242.86L218.736 242.09L212.208 240.054L204.295 239.407L199.03 236.415L187.853 224.729L195.797 214.8L198.261 208.263L198.045 194.695L196.228 188.128L187.607 178.137L173.905 167.129L154.692 158.155L145.67 150.909L123.162 145.358L114.602 141.689L107.921 134.874L106.936 129.971L109.306 122.417L103.087 112.827L76.2988 93.9245L61.3039 86.9873L58.102 82.8853L55.7308 81.6215L58.0094 94.6651L64.5678 102.528L81.6567 109.836L86.3677 114.122L88.2766 119.673L78.3619 130.28L73.2816 132.963L71.8035 138.76L68.5707 140.517L65.1527 137.187L51.297 120.536L24.4784 112.549L19.6138 107.646L9.63755 92.4141L5.04969 78.5378L6.68187 69.2565L17.7045 54.7949L21.1535 48.5041L20.445 44.6186L20.7837 38.9141L16.6887 34.9364L6.49676 29.725L0 25.5629L1.78581 23.4964L13.4558 17.8851L14.1944 12.828L14.1328 11.1624L16.0422 10.7926L17.7355 9.4667L18.7822 8.04857L21.9536 3.17595L24.7556 0.43193L27.9885 0L31.8993 2.00438L46.6171 7.27693L62.9976 13.1047L86.3061 21.3688L95.9742 16.0652L104.288 12.0263L110.076 12.6116L122.608 17.3299L130.152 18.8402L134.77 18.3471L142.776 25.2853L147.148 30.4967L147.887 33.9502L150.319 35.8304L156.57 36.2313L171.842 39.7469L181.172 39.0685L189.67 35.3373L194.35 30.8665L195.797 23.8361Z"/>
</mask>
<path d="M195.797 23.8361L197.952 27.3207L200.447 32.7777L201.555 39.8091L212.547 63.3365L221.322 76.4723L240.536 100.401L248.819 104.81L262.828 124.02L267.662 127.196L270.433 132.87L284.967 137.526L289 140.979L288.508 142.583L286.999 144.28L284.874 145.975L282.041 147.147L275.206 143.631L268.463 139.654L264.768 141.473L263.382 146.654L260.888 149.306L257.779 150.354L256.485 152.081L256.208 169.534L256.455 185.969L261.535 186.339L270.033 192.043L273.666 195.404L274.806 198.518L273.759 200.03L267.539 203.606L261.473 208.139L258.456 213.783L263.752 222.941L264.891 229.138L264.706 235.644L263.229 238.759L251.497 246.191L248.942 248.811L249.249 250.692L255.746 255.842L258.794 260.807L261.35 266.789L261.72 272L255.839 262.348L247.71 253.129L240.628 247.454L240.074 234.226L237.241 227.042L226.588 220.412L217.474 215.756L210.7 216.712L214.856 224.328L225.541 234.103L226.249 237.834L226.095 242.86L218.736 242.09L212.208 240.054L204.295 239.407L199.03 236.415L187.853 224.729L195.797 214.8L198.261 208.263L198.045 194.695L196.228 188.128L187.607 178.137L173.905 167.129L154.692 158.155L145.67 150.909L123.162 145.358L114.602 141.689L107.921 134.874L106.936 129.971L109.306 122.417L103.087 112.827L76.2988 93.9245L61.3039 86.9873L58.102 82.8853L55.7308 81.6215L58.0094 94.6651L64.5678 102.528L81.6567 109.836L86.3677 114.122L88.2766 119.673L78.3619 130.28L73.2816 132.963L71.8035 138.76L68.5707 140.517L65.1527 137.187L51.297 120.536L24.4784 112.549L19.6138 107.646L9.63755 92.4141L5.04969 78.5378L6.68187 69.2565L17.7045 54.7949L21.1535 48.5041L20.445 44.6186L20.7837 38.9141L16.6887 34.9364L6.49676 29.725L0 25.5629L1.78581 23.4964L13.4558 17.8851L14.1944 12.828L14.1328 11.1624L16.0422 10.7926L17.7355 9.4667L18.7822 8.04857L21.9536 3.17595L24.7556 0.43193L27.9885 0L31.8993 2.00438L46.6171 7.27693L62.9976 13.1047L86.3061 21.3688L95.9742 16.0652L104.288 12.0263L110.076 12.6116L122.608 17.3299L130.152 18.8402L134.77 18.3471L142.776 25.2853L147.148 30.4967L147.887 33.9502L150.319 35.8304L156.57 36.2313L171.842 39.7469L181.172 39.0685L189.67 35.3373L194.35 30.8665L195.797 23.8361Z" fill="black" stroke="white" stroke-width="0.4" stroke-linejoin="round" mask="url(#path-1-inside-1_17_2)"/>
</svg>
