<svg width="200" height="367" viewBox="0 0 200 367" fill="none" xmlns="http://www.w3.org/2000/svg">
<mask id="path-1-inside-1_103_3" fill="white">
<path d="M66.4657 2.87369L66.2847 4.38401L66.8792 4.70319L67.7158 3.99556L68.7761 2.27825L69.9399 1.31175L71.1985 1.09607L72.5345 2.26956L73.9483 4.82407L75.3968 6.27382L76.0777 6.43762L76.5691 7.60269L76.6464 8.72456L75.9572 11.0889L74.7933 13.833L73.1296 17.2332L73.6726 20.0895L75.9398 22.4196L78.638 23.7917L81.5003 23.4119L83.0262 22.713L84.2758 21.6169L85.4313 21.0992L86.8967 20.9612L91.4485 21.7636L92.8365 22.5576L93.0433 24.1367L92.483 28.1841L93.1896 31.1526L94.4745 34.2765L94.6292 37.1241L93.0344 41.8099L91.7069 46.2455L90.2762 48.4029L89.1639 49.7923L88.8361 50.7328L88.9313 51.6218L89.9484 52.9507L91.0344 54.668L91.3017 56.3077L91.1812 58.3183L90.4399 61.0796L87.6812 67.06L85.4913 72.4535L86.6378 73.5321L88.8103 74.3172L90.2499 75.0854L91.7589 74.5934L94.957 71.4093L97.7072 69.0446L101.129 66.6803L101.328 66.473L104.327 64.7299L105.698 63.1248L106.44 61.0796L107.5 60.2943L108.871 60.7517L110.612 59.8629L112.724 57.6191L114.345 56.5836L115.474 56.7564L117.492 58.1456L120.405 60.7517L122.992 62.3049L125.259 62.8056L126.371 63.7721L126.311 65.2131L126.819 66.128L127.88 66.5162L128.354 66.3608L128.233 65.6619L129.259 64.6351L131.431 63.2888L133.638 62.4948L135.879 62.262L137.336 61.1918L138.293 58.4131L139.681 56.299L140.923 55.3412L142.457 54.8579L142.862 54.1848L142.121 53.3218L142.19 52.4417L143.078 51.5526L144.983 51.1731L147.914 51.3024L151.336 52.1999L155.267 53.874L157.845 54.4176L159.078 53.8137L161.474 56.4025L165.043 62.1843L168.095 66.5507L170.655 69.5021L173.345 71.7629L176.164 73.3423L178.19 75.4909L180.035 79.5639L178.655 85.1817L178.285 90.0403L178.457 95.986L180.121 100.542L183.276 103.709L185.112 106.264L185.629 108.214L188.086 109.888L192.492 111.277L194.327 112.537L193.578 113.668L193.517 114.979L194.138 116.472L195.672 117.715L198.095 118.69L199.543 119.726L200 120.813L199.948 122.582L199.388 125.024L198.379 126.897L196.914 128.2L196.733 129.235L196.354 130.806V134.025L197.397 136.165L197.715 138.883L197.147 141.101L196.595 145.631L196.526 147.383L196 148.893L194.724 150.343L192.767 151.707L190.388 152.923L188.931 153.458L188.586 153.709L187.543 155.081L186.284 156.41H185.311L184.578 155.736L184.06 154.865L183.759 152.958L181.561 152.017L179.147 151.422L174.233 152.362L170.259 152.872L165.802 152.224L161.612 153.036L159.862 153.156L157.854 153.027L155.905 153.044L154.052 152.751L150.638 151.586L149.328 151.681L146.577 152.647L143.698 153.32L140.94 153.786L136.862 155.771L133.914 158.645L133.043 160.673L131.578 162.718L129.552 165.954L126.923 169.052L125.095 170.467L125.603 171.304L125.147 172.305L122.284 172.754L120.052 172.935L119.647 173.436L119.914 179.666L120.699 182.022L122.138 184.861L123.078 186.423L123.784 191.031L123.991 194.94L127.138 197.408L128.914 199.29L130.181 200.946L129.741 201.999L128.983 205.149L129.715 209.231L134.112 218.033L134.491 218.654L133.966 218.723L133.276 217.032L131.043 214.175L130.354 211.129L127.733 207.773L126.267 206.443L125.793 207.557L124.957 208.747L122.388 207.022L120.181 205.218L118.155 201.723L117.897 202.534L117.439 203.268L115.13 200.524L112.716 198.332L110.543 197.546L109.207 196.822L107.914 195.657L105.207 194.449L98.4654 196.192L89.8879 194.837L86.5862 196.131L85.2329 195.329L84.3968 193.836L85.1982 191.281L85.3792 185.931L86.4052 182.169L85.9227 179.304L86.4226 177.957L86.8019 176.119L85.4481 175.369L79.3883 173.91L78.1123 172.754L76.4912 174.083L69.2154 174.825L66.4741 175.938L63.9396 178.078L63.2845 180.788L64.7499 182.574L65.6896 185.672L63.0777 192.438L62.6378 194.449L63.6465 202.715L63.2413 207.246L61.8191 210.284L59.5692 213.011L58.6379 217.627L56.8711 219.767L54.5002 224.652L52.8964 230.735L51.7588 233.549L51.0948 238.726L46.2067 246.57L45.0602 250.997L43.3102 252.672L43.9227 253.992L44.0258 256.201L43.4139 262.095L43.2155 266.979L43.9569 269.594L46.293 274.78L45.7416 276.282L45.4654 278.422L47.4396 279.389L48.8534 279.673L56.8363 277.222L59.5345 277.852L60.5516 280.139L61.2072 282.133L62.5605 292.885L63.2587 294.879L64.8709 296.777L66.6383 298.796L67.2412 298.434L67.3533 297.683L67.4743 296.837L69.0518 298.874L70.2846 302.671L74.4913 322.735L75.7072 325.28L76.7154 327.964L74.1466 326.661L73.4568 322.208L72.7244 320.335L71.8189 320.059L70.3882 320.094L70.293 319.3L71.3706 317.85L71.1985 316.107L69.7242 314.675L67.3449 315.814L67.4138 318.938L68.474 321.328L72.5087 326.678L73.7673 328.913L75.371 329.552L77.7072 329.198L80.5001 331.476L82.6984 333.59L88.1552 336.826L91.4569 336.481L95.0259 335.679L97.4136 335.886L99.7588 336.714L102.577 339.415L107.052 346.181L114.362 351.807L113.569 353.205L113.25 355.337L110.371 358.176L109.905 359.815L108.854 361.895L106.854 363.008L105.129 363.216L104.138 363.017L103.448 362.603L102.276 360.635L101.681 360.04L101.181 359.902L97.4999 361.257L93.9399 362.758L93.2848 364.104L92.3362 365.675L91.3017 366.296L90.483 366.452L89.6985 365.528L88.3362 364.329L87.2844 363.207L87.5517 361.395L89.5517 358.728L89.8106 356.864L89.5606 353.654L89.0171 351.807L88.4399 351.747L87.457 351.445L84.681 351.747L83.293 349.659L82.75 347.363L81.8018 346.543L80.8621 346.043L78.7848 346.837L77.19 346.362L71.9052 344.369L69.8794 341.15L68.7934 341.055L67.8363 341.409L67.457 342.142L66.8966 345.844L66.4399 346.975L60.3795 339.519L56.207 336.447L56.7932 330.881L55.5262 329.802L53.9398 329.699L52.7417 328.154L53.8019 324.84L52.164 325.47L49.8967 325.349L48.0346 324.434L46.6293 319.844L45.7327 318.446L43.7932 316.038H41.2329L40.3795 314.882L40.5863 311.913L38.7157 310.092L36.2585 308.608L34.2418 307.736L32.1813 302.947L30.5607 301.773L29.1811 300.816L27.2585 301.463L26.6292 303.189L25.3538 304.854L23.8968 304.647L22.5604 303.698L20.9314 298.908L20.6641 295.974L21.0261 290.521L23.0602 285.628L24.1552 277.792L25.8878 272.865L27.1038 271.191L28.7675 264.451L32.1724 255.83L32.5607 253.983L33.2499 251.912L33.7672 249.953L33.9397 246.864L33.4999 245.242V244.327L34.2155 243.162L36.6379 241.203L39.9917 237.976L43.9742 233.437L48.0604 226.464L50.0862 222.417L50.9396 220.984L51.8362 220.535L53.2326 219.146L54.1897 217.61L54.2413 216.833L52.0261 209.248L50.5692 206.771L49.8362 203.846L49.4395 201.732L48.9054 199.79L49.1638 197.961L48.3619 196.822L46.5519 195.381L44.6725 193.232L43.5517 189.72V187.761L42.3536 186.043L41.9485 184.248L42.6725 182.531L43.6122 181.047L43.5002 174.523L43.1208 172.573L42.6551 169.086L41.4313 166.454L39.6986 163.374L37.7329 160.828L32.5949 156.22L28.9312 153.139L27.1206 150.326L24.8192 147.09L23.1723 144.76L21.095 141.817L20.0348 137.805L19.4486 133.524L19.7675 132.109L20.7588 131.177L22.0605 130.426L23.1123 130.254L26.0778 128.286L28.1382 128.459L28.6207 128.036L28.8191 127.138L28.5518 123.238L28.6465 118.017L29.0259 113.763L29.4742 110.958L34.94 107.696L36.0865 106.281L36.6379 104.753V103.407L36.1728 102.346L35.3535 101.759L31.8193 104.572L31.1295 103.951L29.5089 99.3255L28.8107 97.9103L27.802 96.2191L26.7155 93.8544L26.5434 89.7641L25.7589 87.7362L21.3449 83.4128L19.3708 81.0829L16.6726 77.7173L13.4398 73.6788L10.1381 69.9421L8.58648 67.5517L8.04348 67.0081L7.86196 66.0848L8.8622 63.5132L8.36234 60.9242L6.72439 57.4725L6.01722 55.3325L6.25031 54.5126L5.45686 54.1932L3.62107 54.3747L1.8621 52.7521L0.164163 49.3349L0 48.7308L0.551947 48.7395L2.68134 49.3262L3.40534 49.2401L4.91385 48.4548L7.19846 47.6263L8.55176 47.35L9.00005 46.9445L9.19 46.1162L8.02612 38.2115L8.22448 36.5632L10.3881 33.1459L10.1466 29.6942L10.6985 24.7408L13.112 21.3494L14.9226 19.7874L15.4913 17.3367L16.319 16.8189L17.8191 17.0088L20.914 18.8383L22.2331 18.9247L24.112 18.8728L26.1293 18.7348L27.0691 18.562L33.5262 16.7757L34.9484 16.5859L36.3106 16.8102L37.3019 16.7241L38.2932 15.9043L38.9999 14.4632L39.8107 9.83775L40.2758 9.01794L41.1124 8.36219L42.4831 7.92187L44.0863 7.95637L46.181 8.84544L47.4916 8.87994L48.9744 8.50888L50.233 7.87025L51.069 7.05913L51.4484 6.08394L51.1122 4.21125L50.1551 1.864L50.4224 1.57932L52.1814 2.09707L54.7675 2.67512L56.7416 2.54582L58.026 2.14026L59.2846 1.02707L60.871 0L62.4137 0.233066L63.6123 1.14795L66.4657 2.87369V2.87369ZM122.215 211.777L122.293 212.363L121.035 211.915L120.595 212.122L119.19 211.958L118.5 208.549L118.603 207.746L119.604 207.997L121.035 209.688L121.767 210.862L122.215 211.777ZM126.561 219.448L126.164 222.011L124.785 220.958L125.112 219.664L125.655 219.077L126.561 219.448V219.448ZM65.3018 267.929L65.0692 268.334L64.1295 267.557L63.4655 266.677L63.1124 265.555L64.5604 265.599L65.276 266.634L65.3018 267.929V267.929ZM65.2155 270.63L65.3276 272.01L64.8019 273.667L62.5947 274.642L61.8365 273.313L62.0348 271.268L62.3705 270.75L64.5347 270.854L65.2155 270.63ZM22.5604 283.669L21.1897 283.928L21.3707 282.599L21.7327 281.762L22.3967 281.537L22.6724 282.97L22.5604 283.669ZM25.0176 311.628L24.7587 313.415L23.7674 313.389L22.7587 314.536L22.2847 314.692L21.4654 311.05L22.4052 305.941L22.914 305.217L23.6122 306.571L25.6379 307.175L24.7587 310.118L25.0176 311.628V311.628ZM29.431 310.852L29.1469 311.257L27.9141 306.606L29.7331 307.857L29.431 310.852ZM41.2071 319.153L41.8364 322.079L40.9483 321.483L40.2158 320.206L40.2243 318.333L40.4053 318.075L41.2071 319.153V319.153ZM55.3452 345.094L54.8879 345.24L53.9829 343.281L55.1295 340.442L56.276 343.92L55.3452 345.094V345.094Z"/>
</mask>
<path d="M66.4657 2.87369L66.2847 4.38401L66.8792 4.70319L67.7158 3.99556L68.7761 2.27825L69.9399 1.31175L71.1985 1.09607L72.5345 2.26956L73.9483 4.82407L75.3968 6.27382L76.0777 6.43762L76.5691 7.60269L76.6464 8.72456L75.9572 11.0889L74.7933 13.833L73.1296 17.2332L73.6726 20.0895L75.9398 22.4196L78.638 23.7917L81.5003 23.4119L83.0262 22.713L84.2758 21.6169L85.4313 21.0992L86.8967 20.9612L91.4485 21.7636L92.8365 22.5576L93.0433 24.1367L92.483 28.1841L93.1896 31.1526L94.4745 34.2765L94.6292 37.1241L93.0344 41.8099L91.7069 46.2455L90.2762 48.4029L89.1639 49.7923L88.8361 50.7328L88.9313 51.6218L89.9484 52.9507L91.0344 54.668L91.3017 56.3077L91.1812 58.3183L90.4399 61.0796L87.6812 67.06L85.4913 72.4535L86.6378 73.5321L88.8103 74.3172L90.2499 75.0854L91.7589 74.5934L94.957 71.4093L97.7072 69.0446L101.129 66.6803L101.328 66.473L104.327 64.7299L105.698 63.1248L106.44 61.0796L107.5 60.2943L108.871 60.7517L110.612 59.8629L112.724 57.6191L114.345 56.5836L115.474 56.7564L117.492 58.1456L120.405 60.7517L122.992 62.3049L125.259 62.8056L126.371 63.7721L126.311 65.2131L126.819 66.128L127.88 66.5162L128.354 66.3608L128.233 65.6619L129.259 64.6351L131.431 63.2888L133.638 62.4948L135.879 62.262L137.336 61.1918L138.293 58.4131L139.681 56.299L140.923 55.3412L142.457 54.8579L142.862 54.1848L142.121 53.3218L142.19 52.4417L143.078 51.5526L144.983 51.1731L147.914 51.3024L151.336 52.1999L155.267 53.874L157.845 54.4176L159.078 53.8137L161.474 56.4025L165.043 62.1843L168.095 66.5507L170.655 69.5021L173.345 71.7629L176.164 73.3423L178.19 75.4909L180.035 79.5639L178.655 85.1817L178.285 90.0403L178.457 95.986L180.121 100.542L183.276 103.709L185.112 106.264L185.629 108.214L188.086 109.888L192.492 111.277L194.327 112.537L193.578 113.668L193.517 114.979L194.138 116.472L195.672 117.715L198.095 118.69L199.543 119.726L200 120.813L199.948 122.582L199.388 125.024L198.379 126.897L196.914 128.2L196.733 129.235L196.354 130.806V134.025L197.397 136.165L197.715 138.883L197.147 141.101L196.595 145.631L196.526 147.383L196 148.893L194.724 150.343L192.767 151.707L190.388 152.923L188.931 153.458L188.586 153.709L187.543 155.081L186.284 156.41H185.311L184.578 155.736L184.06 154.865L183.759 152.958L181.561 152.017L179.147 151.422L174.233 152.362L170.259 152.872L165.802 152.224L161.612 153.036L159.862 153.156L157.854 153.027L155.905 153.044L154.052 152.751L150.638 151.586L149.328 151.681L146.577 152.647L143.698 153.32L140.94 153.786L136.862 155.771L133.914 158.645L133.043 160.673L131.578 162.718L129.552 165.954L126.923 169.052L125.095 170.467L125.603 171.304L125.147 172.305L122.284 172.754L120.052 172.935L119.647 173.436L119.914 179.666L120.699 182.022L122.138 184.861L123.078 186.423L123.784 191.031L123.991 194.94L127.138 197.408L128.914 199.29L130.181 200.946L129.741 201.999L128.983 205.149L129.715 209.231L134.112 218.033L134.491 218.654L133.966 218.723L133.276 217.032L131.043 214.175L130.354 211.129L127.733 207.773L126.267 206.443L125.793 207.557L124.957 208.747L122.388 207.022L120.181 205.218L118.155 201.723L117.897 202.534L117.439 203.268L115.13 200.524L112.716 198.332L110.543 197.546L109.207 196.822L107.914 195.657L105.207 194.449L98.4654 196.192L89.8879 194.837L86.5862 196.131L85.2329 195.329L84.3968 193.836L85.1982 191.281L85.3792 185.931L86.4052 182.169L85.9227 179.304L86.4226 177.957L86.8019 176.119L85.4481 175.369L79.3883 173.91L78.1123 172.754L76.4912 174.083L69.2154 174.825L66.4741 175.938L63.9396 178.078L63.2845 180.788L64.7499 182.574L65.6896 185.672L63.0777 192.438L62.6378 194.449L63.6465 202.715L63.2413 207.246L61.8191 210.284L59.5692 213.011L58.6379 217.627L56.8711 219.767L54.5002 224.652L52.8964 230.735L51.7588 233.549L51.0948 238.726L46.2067 246.57L45.0602 250.997L43.3102 252.672L43.9227 253.992L44.0258 256.201L43.4139 262.095L43.2155 266.979L43.9569 269.594L46.293 274.78L45.7416 276.282L45.4654 278.422L47.4396 279.389L48.8534 279.673L56.8363 277.222L59.5345 277.852L60.5516 280.139L61.2072 282.133L62.5605 292.885L63.2587 294.879L64.8709 296.777L66.6383 298.796L67.2412 298.434L67.3533 297.683L67.4743 296.837L69.0518 298.874L70.2846 302.671L74.4913 322.735L75.7072 325.28L76.7154 327.964L74.1466 326.661L73.4568 322.208L72.7244 320.335L71.8189 320.059L70.3882 320.094L70.293 319.3L71.3706 317.85L71.1985 316.107L69.7242 314.675L67.3449 315.814L67.4138 318.938L68.474 321.328L72.5087 326.678L73.7673 328.913L75.371 329.552L77.7072 329.198L80.5001 331.476L82.6984 333.59L88.1552 336.826L91.4569 336.481L95.0259 335.679L97.4136 335.886L99.7588 336.714L102.577 339.415L107.052 346.181L114.362 351.807L113.569 353.205L113.25 355.337L110.371 358.176L109.905 359.815L108.854 361.895L106.854 363.008L105.129 363.216L104.138 363.017L103.448 362.603L102.276 360.635L101.681 360.04L101.181 359.902L97.4999 361.257L93.9399 362.758L93.2848 364.104L92.3362 365.675L91.3017 366.296L90.483 366.452L89.6985 365.528L88.3362 364.329L87.2844 363.207L87.5517 361.395L89.5517 358.728L89.8106 356.864L89.5606 353.654L89.0171 351.807L88.4399 351.747L87.457 351.445L84.681 351.747L83.293 349.659L82.75 347.363L81.8018 346.543L80.8621 346.043L78.7848 346.837L77.19 346.362L71.9052 344.369L69.8794 341.15L68.7934 341.055L67.8363 341.409L67.457 342.142L66.8966 345.844L66.4399 346.975L60.3795 339.519L56.207 336.447L56.7932 330.881L55.5262 329.802L53.9398 329.699L52.7417 328.154L53.8019 324.84L52.164 325.47L49.8967 325.349L48.0346 324.434L46.6293 319.844L45.7327 318.446L43.7932 316.038H41.2329L40.3795 314.882L40.5863 311.913L38.7157 310.092L36.2585 308.608L34.2418 307.736L32.1813 302.947L30.5607 301.773L29.1811 300.816L27.2585 301.463L26.6292 303.189L25.3538 304.854L23.8968 304.647L22.5604 303.698L20.9314 298.908L20.6641 295.974L21.0261 290.521L23.0602 285.628L24.1552 277.792L25.8878 272.865L27.1038 271.191L28.7675 264.451L32.1724 255.83L32.5607 253.983L33.2499 251.912L33.7672 249.953L33.9397 246.864L33.4999 245.242V244.327L34.2155 243.162L36.6379 241.203L39.9917 237.976L43.9742 233.437L48.0604 226.464L50.0862 222.417L50.9396 220.984L51.8362 220.535L53.2326 219.146L54.1897 217.61L54.2413 216.833L52.0261 209.248L50.5692 206.771L49.8362 203.846L49.4395 201.732L48.9054 199.79L49.1638 197.961L48.3619 196.822L46.5519 195.381L44.6725 193.232L43.5517 189.72V187.761L42.3536 186.043L41.9485 184.248L42.6725 182.531L43.6122 181.047L43.5002 174.523L43.1208 172.573L42.6551 169.086L41.4313 166.454L39.6986 163.374L37.7329 160.828L32.5949 156.22L28.9312 153.139L27.1206 150.326L24.8192 147.09L23.1723 144.76L21.095 141.817L20.0348 137.805L19.4486 133.524L19.7675 132.109L20.7588 131.177L22.0605 130.426L23.1123 130.254L26.0778 128.286L28.1382 128.459L28.6207 128.036L28.8191 127.138L28.5518 123.238L28.6465 118.017L29.0259 113.763L29.4742 110.958L34.94 107.696L36.0865 106.281L36.6379 104.753V103.407L36.1728 102.346L35.3535 101.759L31.8193 104.572L31.1295 103.951L29.5089 99.3255L28.8107 97.9103L27.802 96.2191L26.7155 93.8544L26.5434 89.7641L25.7589 87.7362L21.3449 83.4128L19.3708 81.0829L16.6726 77.7173L13.4398 73.6788L10.1381 69.9421L8.58648 67.5517L8.04348 67.0081L7.86196 66.0848L8.8622 63.5132L8.36234 60.9242L6.72439 57.4725L6.01722 55.3325L6.25031 54.5126L5.45686 54.1932L3.62107 54.3747L1.8621 52.7521L0.164163 49.3349L0 48.7308L0.551947 48.7395L2.68134 49.3262L3.40534 49.2401L4.91385 48.4548L7.19846 47.6263L8.55176 47.35L9.00005 46.9445L9.19 46.1162L8.02612 38.2115L8.22448 36.5632L10.3881 33.1459L10.1466 29.6942L10.6985 24.7408L13.112 21.3494L14.9226 19.7874L15.4913 17.3367L16.319 16.8189L17.8191 17.0088L20.914 18.8383L22.2331 18.9247L24.112 18.8728L26.1293 18.7348L27.0691 18.562L33.5262 16.7757L34.9484 16.5859L36.3106 16.8102L37.3019 16.7241L38.2932 15.9043L38.9999 14.4632L39.8107 9.83775L40.2758 9.01794L41.1124 8.36219L42.4831 7.92187L44.0863 7.95637L46.181 8.84544L47.4916 8.87994L48.9744 8.50888L50.233 7.87025L51.069 7.05913L51.4484 6.08394L51.1122 4.21125L50.1551 1.864L50.4224 1.57932L52.1814 2.09707L54.7675 2.67512L56.7416 2.54582L58.026 2.14026L59.2846 1.02707L60.871 0L62.4137 0.233066L63.6123 1.14795L66.4657 2.87369V2.87369ZM122.215 211.777L122.293 212.363L121.035 211.915L120.595 212.122L119.19 211.958L118.5 208.549L118.603 207.746L119.604 207.997L121.035 209.688L121.767 210.862L122.215 211.777ZM126.561 219.448L126.164 222.011L124.785 220.958L125.112 219.664L125.655 219.077L126.561 219.448V219.448ZM65.3018 267.929L65.0692 268.334L64.1295 267.557L63.4655 266.677L63.1124 265.555L64.5604 265.599L65.276 266.634L65.3018 267.929V267.929ZM65.2155 270.63L65.3276 272.01L64.8019 273.667L62.5947 274.642L61.8365 273.313L62.0348 271.268L62.3705 270.75L64.5347 270.854L65.2155 270.63ZM22.5604 283.669L21.1897 283.928L21.3707 282.599L21.7327 281.762L22.3967 281.537L22.6724 282.97L22.5604 283.669ZM25.0176 311.628L24.7587 313.415L23.7674 313.389L22.7587 314.536L22.2847 314.692L21.4654 311.05L22.4052 305.941L22.914 305.217L23.6122 306.571L25.6379 307.175L24.7587 310.118L25.0176 311.628V311.628ZM29.431 310.852L29.1469 311.257L27.9141 306.606L29.7331 307.857L29.431 310.852ZM41.2071 319.153L41.8364 322.079L40.9483 321.483L40.2158 320.206L40.2243 318.333L40.4053 318.075L41.2071 319.153V319.153ZM55.3452 345.094L54.8879 345.24L53.9829 343.281L55.1295 340.442L56.276 343.92L55.3452 345.094V345.094Z" fill="black" stroke="white" stroke-width="0.4" stroke-linejoin="round" mask="url(#path-1-inside-1_103_3)"/>
</svg>
