<svg version="1.1" xmlns="http://www.w3.org/2000/svg"
    viewBox="0 0 323.46965759358136 305.7283545342634" width="646.9393151871627"
    height="611.4567090685268">
    <!-- svg-source:excalidraw -->

    <defs>
        <style class="style-fonts">

        </style>

    </defs>
    <g
        transform="translate(287.32457940090535 116.4478183559022) rotate(0 -42.95262845940033 89.64026808918061)"
        stroke="none">
        <path fill="#c20000"
            d="M -10.93,10.06 Q -10.93,10.06 -14.80,10.22 -18.68,10.39 -23.86,10.72 -29.04,11.05 -34.36,12.03 -39.68,13.01 -47.98,16.48 -56.27,19.95 -60.15,22.41 -64.03,24.86 -68.38,28.31 -72.72,31.75 -76.79,36.15 -80.85,40.54 -85.17,46.54 -89.48,52.54 -93.41,60.33 -97.34,68.13 -99.55,77.50 -101.76,86.87 -102.86,97.37 -103.97,107.86 -103.59,117.36 -103.21,126.85 -99.92,135.25 -96.63,143.65 -92.51,150.26 -88.38,156.87 -83.49,161.02 -78.60,165.18 -73.29,167.12 -67.99,169.06 -62.89,168.84 -57.80,168.62 -52.22,165.45 -46.64,162.28 -40.95,156.20 -35.26,150.13 -30.32,142.69 -25.37,135.25 -21.88,128.37 -18.39,121.49 -16.84,116.39 -15.29,111.30 -13.14,105.08 -11.00,98.87 -5.66,94.89 -0.31,90.91 4.25,89.82 8.83,88.73 13.85,88.24 18.87,87.75 22.19,87.36 25.52,86.97 27.18,87.14 28.84,87.31 30.37,88.00 31.89,88.69 33.11,89.84 34.33,90.98 35.13,92.45 35.92,93.93 36.20,95.57 36.48,97.22 36.22,98.88 35.96,100.53 35.18,102.01 34.41,103.49 33.20,104.65 32.00,105.81 30.48,106.52 28.97,107.23 27.31,107.42 25.64,107.62 24.01,107.27 22.37,106.92 20.93,106.06 19.49,105.21 18.40,103.94 17.31,102.67 16.68,101.12 16.06,99.57 15.96,97.90 15.85,96.23 16.29,94.62 16.73,93.00 17.66,91.61 18.59,90.22 19.92,89.20 21.24,88.18 22.82,87.64 24.41,87.09 26.08,87.08 27.75,87.07 29.34,87.60 30.93,88.12 32.27,89.13 33.60,90.13 34.55,91.51 35.50,92.89 35.96,94.50 36.41,96.11 36.33,97.78 36.25,99.45 35.64,101.01 35.03,102.57 33.96,103.85 32.88,105.13 31.45,106.00 30.02,106.87 28.39,107.24 26.76,107.61 26.76,107.61 26.76,107.61 19.41,107.68 12.05,107.75 7.45,107.66 2.86,107.58 0.19,111.92 -2.46,116.27 -4.98,121.65 -7.49,127.04 -11.28,134.47 -15.08,141.90 -20.43,150.39 -25.78,158.89 -32.92,166.63 -40.07,174.37 -48.72,178.56 -57.36,182.75 -65.22,182.12 -73.08,181.48 -80.02,178.00 -86.96,174.52 -92.64,168.88 -98.32,163.24 -103.11,155.68 -107.90,148.12 -111.89,137.96 -115.89,127.80 -116.69,117.29 -117.50,106.79 -116.83,95.37 -116.16,83.95 -114.19,72.81 -112.22,61.68 -108.60,52.28 -104.98,42.89 -100.66,35.06 -96.33,27.23 -91.46,21.28 -86.60,15.32 -81.33,10.68 -76.07,6.05 -71.01,2.80 -65.95,-0.45 -60.71,-2.99 -55.46,-5.53 -50.41,-7.39 -45.35,-9.24 -37.20,-10.14 -29.04,-11.05 -23.86,-10.72 -18.68,-10.39 -14.80,-10.22 -10.93,-10.06 -9.72,-9.91 -8.52,-9.77 -7.38,-9.34 -6.25,-8.91 -5.25,-8.22 -4.25,-7.53 -3.45,-6.62 -2.64,-5.71 -2.08,-4.64 -1.52,-3.56 -1.23,-2.39 -0.94,-1.21 -0.94,0.00 -0.94,1.21 -1.23,2.39 -1.52,3.56 -2.08,4.64 -2.64,5.71 -3.45,6.62 -4.25,7.53 -5.25,8.22 -6.25,8.91 -7.38,9.34 -8.52,9.77 -9.72,9.91 -10.93,10.06 -10.93,10.06 L -10.93,10.06 Z"></path>
    </g>
    <g transform="translate(130.39694170651092 18.91829197825882) rotate(0 0 104.78993074455889)"
        stroke="none">
        <path fill="#c20000"
            d="M 7.47,0 Q 7.47,0 7.17,11.53 6.87,23.07 6.65,40.79 6.43,58.52 6.27,80.79 6.11,103.07 5.99,124.07 5.87,145.08 5.79,159.78 5.70,174.47 5.64,183.92 5.58,193.37 6.06,198.03 6.55,202.69 6.87,204.67 7.19,206.65 7.00,207.80 6.81,208.95 6.27,209.97 5.72,211.00 4.88,211.80 4.03,212.60 2.97,213.09 1.92,213.58 0.76,213.70 -0.38,213.83 -1.52,213.58 -2.66,213.33 -3.65,212.73 -4.65,212.13 -5.40,211.24 -6.16,210.36 -6.59,209.28 -7.02,208.19 -7.08,207.03 -7.14,205.87 -6.83,204.75 -6.52,203.63 -5.87,202.66 -5.22,201.70 -4.29,201.00 -3.36,200.29 -2.26,199.92 -1.16,199.55 0.00,199.55 1.16,199.55 2.26,199.92 3.36,200.29 4.29,201.00 5.22,201.70 5.87,202.67 6.52,203.63 6.83,204.75 7.15,205.87 7.08,207.03 7.02,208.20 6.59,209.28 6.16,210.36 5.40,211.24 4.65,212.13 3.65,212.73 2.66,213.33 1.52,213.58 0.38,213.83 -0.76,213.70 -1.92,213.58 -2.98,213.09 -4.03,212.60 -4.88,211.80 -5.72,211.00 -6.27,209.97 -6.81,208.94 -7.00,207.79 -7.19,206.65 -7.19,206.65 -7.19,206.65 -6.87,204.67 -6.55,202.69 -6.06,198.03 -5.58,193.37 -5.64,183.92 -5.70,174.47 -5.79,159.78 -5.87,145.08 -5.99,124.07 -6.11,103.07 -6.27,80.79 -6.43,58.52 -6.65,40.79 -6.87,23.07 -7.17,11.53 -7.47,0 -7.36,-0.89 -7.25,-1.78 -6.93,-2.63 -6.61,-3.47 -6.10,-4.21 -5.59,-4.95 -4.91,-5.55 -4.24,-6.15 -3.44,-6.56 -2.65,-6.98 -1.77,-7.20 -0.90,-7.41 0.00,-7.41 0.90,-7.41 1.77,-7.20 2.65,-6.98 3.44,-6.56 4.24,-6.15 4.92,-5.55 5.59,-4.95 6.10,-4.21 6.61,-3.47 6.93,-2.63 7.25,-1.78 7.36,-0.89 7.47,0.00 7.47,0.00 L 7.47,0 Z"></path>
    </g>
    <g
        transform="translate(83.57590882064869 45.6731679130412) rotate(0 50.16539237771303 53.509751869561796)"
        stroke="none">
        <path fill="#c20000"
            d="M -3.29,-7.32 Q -3.29,-7.32 9.67,-12.75 22.64,-18.18 39.28,-24.30 55.92,-30.43 73.06,-33.70 90.21,-36.98 104.62,-38.29 119.03,-39.60 129.64,-40.10 140.25,-40.60 148.23,-40.33 156.20,-40.05 161.63,-39.40 167.05,-38.75 171.57,-35.04 176.09,-31.33 178.24,-25.41 180.40,-19.49 179.66,-11.54 178.91,-3.58 169.94,10.72 160.97,25.03 141.30,42.63 121.64,60.22 95.13,77.23 68.63,94.23 40.47,107.23 12.32,120.23 -11.98,128.30 -36.28,136.38 -46.49,139.72 -56.70,143.06 -57.61,143.21 -58.53,143.36 -59.44,143.21 -60.36,143.06 -61.18,142.62 -62.00,142.19 -62.63,141.51 -63.27,140.84 -63.66,140.00 -64.05,139.15 -64.15,138.23 -64.25,137.31 -64.05,136.41 -63.85,135.50 -63.37,134.70 -62.89,133.91 -62.19,133.31 -61.48,132.71 -60.62,132.37 -59.76,132.02 -58.83,131.97 -57.90,131.92 -57.01,132.17 -56.12,132.42 -55.35,132.94 -54.58,133.46 -54.02,134.20 -53.46,134.94 -53.16,135.82 -52.87,136.70 -52.87,137.63 -52.87,138.55 -53.17,139.43 -53.46,140.31 -54.02,141.05 -54.59,141.79 -55.35,142.31 -56.12,142.83 -57.01,143.07 -57.91,143.32 -58.83,143.27 -59.76,143.22 -60.62,142.88 -61.48,142.53 -62.19,141.93 -62.90,141.33 -63.37,140.54 -63.85,139.74 -64.05,138.84 -64.25,137.93 -64.15,137.01 -64.05,136.09 -63.66,135.24 -63.27,134.40 -62.63,133.73 -61.99,133.06 -61.17,132.62 -60.35,132.19 -60.35,132.19 -60.35,132.19 -50.21,128.68 -40.06,125.17 -16.47,117.12 7.11,109.06 34.33,96.19 61.56,83.32 86.93,66.61 112.30,49.89 130.24,33.39 148.17,16.90 155.28,5.28 162.39,-6.34 163.26,-14.09 164.12,-21.84 159.85,-24.91 155.58,-27.97 148.25,-28.47 140.91,-28.96 130.57,-28.27 120.23,-27.57 106.46,-26.06 92.69,-24.55 76.71,-21.19 60.73,-17.83 44.68,-11.36 28.63,-4.88 15.96,1.22 3.29,7.32 2.37,7.61 1.44,7.90 0.48,7.96 -0.48,8.02 -1.43,7.84 -2.39,7.67 -3.27,7.27 -4.15,6.87 -4.92,6.27 -5.68,5.68 -6.28,4.91 -6.87,4.15 -7.27,3.27 -7.67,2.39 -7.84,1.43 -8.02,0.48 -7.96,-0.48 -7.90,-1.44 -7.61,-2.37 -7.32,-3.29 -6.82,-4.12 -6.32,-4.95 -5.64,-5.64 -4.95,-6.32 -4.12,-6.82 -3.29,-7.32 -3.29,-7.32 L -3.29,-7.32 Z"></path>
    </g>
</svg>